<?xml version="1.0" encoding="UTF-8"?>
<svg width="29px" height="29px" viewBox="0 0 29 29" version="1.1" xmlns="http://www.w3.org/2000/svg" xmlns:xlink="http://www.w3.org/1999/xlink">
    <!-- Generator: Sketch 63.1 (92452) - https://sketch.com -->
    <title>ic_profile_date</title>
    <desc>Created with Sketch.</desc>
    <g id="Page-1" stroke="none" stroke-width="1" fill="none" fill-rule="evenodd">
        <g id="user-profile" transform="translate(-1402.000000, -423.000000)">
            <g id="profile" transform="translate(1146.000000, 125.000000)">
                <g id="Group-6" transform="translate(165.000000, 298.000000)">
                    <g id="ic_profile_date" transform="translate(91.000000, 0.000000)">
                        <circle id="Oval" fill="#961270" cx="14.5" cy="14.5" r="14.5"></circle>
                        <path d="M17.0155448,8.66367922 L17.0155448,10.4846862 C17.0155448,11.3048184 17.6590116,11.9657177 18.4417657,11.9657177 L18.4417657,11.9657177 L19.3361197,11.9657177 C20.1188151,11.9657177 20.7538642,11.3048184 20.7538642,10.4846862 L20.7538642,10.4846862 L20.7538642,8.67019357 C21.4379234,8.6917954 22,9.28481644 22,10.013717 L22,10.013717 L22,20.647504 C22,21.3888494 21.4244317,22 20.716674,22 L20.716674,22 L9.283326,22 C8.57451239,22 8,21.3901092 8,20.647504 L8,20.647504 L8,10.013717 C8,9.28481644 8.56210588,8.6917954 9.24616513,8.67019357 L9.24616513,8.67019357 L9.24616513,10.4846862 C9.24616513,11.3048184 9.88118492,11.9657177 10.663851,11.9657177 L10.663851,11.9657177 L11.558381,11.9657177 C12.3410177,11.9657177 12.9844552,11.3048184 12.9844552,10.4846862 L12.9844552,10.4846862 L12.9844552,8.66367922 L17.0155448,8.66367922 Z M19.783634,13.9111733 L10.191905,13.9111733 C9.88543775,13.9111733 9.63710221,14.1715323 9.63710221,14.4925792 L9.63710221,14.4925792 L9.63710221,19.985314 C9.63710221,20.306238 9.88546708,20.5665969 10.191905,20.5665969 L10.191905,20.5665969 L19.7836633,20.5665969 C20.0901012,20.5665969 20.3384661,20.306238 20.3384661,19.985314 L20.3384661,19.985314 L20.3384661,14.4925792 C20.3384661,14.1715323 20.0900719,13.9111733 19.783634,13.9111733 L19.783634,13.9111733 Z M12.7327467,17.9046242 C12.9122452,17.9046242 13.0577211,18.0567281 13.0577211,18.2449376 L13.0577211,18.2449376 L13.0577211,19.4326697 C13.0577211,19.620664 12.9122452,19.7729523 12.7327467,19.7729523 L12.7327467,19.7729523 L11.5987095,19.7729523 C11.4194163,19.7729523 11.2739111,19.6206947 11.2739111,19.4326697 L11.2739111,19.4326697 L11.2739111,18.2449376 C11.2739111,18.0567281 11.4194163,17.9046242 11.5987095,17.9046242 L11.5987095,17.9046242 Z M15.5671799,17.9046242 C15.7463264,17.9046242 15.8918316,18.0567281 15.8918316,18.2449376 L15.8918316,18.2449376 L15.8918316,19.4326697 C15.8918316,19.620664 15.7463264,19.7729523 15.5671799,19.7729523 L15.5671799,19.7729523 L14.432996,19.7729523 C14.2537029,19.7729523 14.1081977,19.6206947 14.1081977,19.4326697 L14.1081977,19.4326697 L14.1081977,18.2449376 C14.1081977,18.0567281 14.2537029,17.9046242 14.432996,17.9046242 L14.432996,17.9046242 Z M18.4014372,17.9046242 C18.5805837,17.9046242 18.7260889,18.0567281 18.7260889,18.2449376 L18.7260889,18.2449376 L18.7260889,19.4326697 C18.7260889,19.620664 18.5805837,19.7729523 18.4014372,19.7729523 L18.4014372,19.7729523 L17.2672533,19.7729523 C17.0877548,19.7729523 16.9422789,19.6206947 16.9422789,19.4326697 L16.9422789,19.4326697 L16.9422789,18.2449376 C16.9422789,18.0567281 17.0877548,17.9046242 17.2672533,17.9046242 L17.2672533,17.9046242 Z M12.7327467,14.9352785 C12.9122452,14.9352785 13.0577211,15.0875054 13.0577211,15.2754075 L13.0577211,15.2754075 L13.0577211,16.4633547 C13.0577211,16.6515027 12.9122452,16.803791 12.7327467,16.803791 L12.7327467,16.803791 L11.5987095,16.803791 C11.4194163,16.803791 11.2739111,16.6515027 11.2739111,16.4633547 L11.2739111,16.4633547 L11.2739111,15.2754075 C11.2739111,15.0875054 11.4194163,14.9352785 11.5987095,14.9352785 L11.5987095,14.9352785 Z M15.5671799,14.9352785 C15.7463264,14.9352785 15.8918316,15.0875054 15.8918316,15.2754075 L15.8918316,15.2754075 L15.8918316,16.4633547 C15.8918316,16.6515027 15.7463264,16.803791 15.5671799,16.803791 L15.5671799,16.803791 L14.432996,16.803791 C14.2537029,16.803791 14.1081977,16.6515027 14.1081977,16.4633547 L14.1081977,16.4633547 L14.1081977,15.2754075 C14.1081977,15.0875054 14.2537029,14.9352785 14.432996,14.9352785 L14.432996,14.9352785 Z M18.4012905,14.9352785 C18.5805837,14.9352785 18.7260889,15.0875054 18.7260889,15.2754075 L18.7260889,15.2754075 L18.7260889,16.4633547 C18.7260889,16.6515027 18.5805837,16.803791 18.4012905,16.803791 L18.4012905,16.803791 L17.2672533,16.803791 C17.0877548,16.803791 16.9422789,16.6515027 16.9422789,16.4633547 L16.9422789,16.4633547 L16.9422789,15.2754075 C16.9422789,15.0875054 17.0877548,14.9352785 17.2672533,14.9352785 L17.2672533,14.9352785 Z M11.5453586,7 C11.813873,7 12.0315882,7.2279101 12.0315882,7.50925632 L12.0315882,7.50925632 L12.0315882,10.4838872 C12.0315882,10.7652027 11.813873,10.9929592 11.5453586,10.9929592 L11.5453586,10.9929592 L10.6607127,10.9929592 C10.3921689,10.9929592 10.1744831,10.7652027 10.1744831,10.4838872 L10.1744831,10.4838872 L10.1744831,7.50925632 C10.1744831,7.2279101 10.3921689,7 10.6607127,7 L10.6607127,7 Z M19.3150315,7 C19.5833993,7 19.8011145,7.2279101 19.8010852,7.50925632 L19.8010852,7.50925632 L19.8010852,10.4838872 C19.8010852,10.7652027 19.58337,10.9929592 19.3150315,10.9929592 L19.3150315,10.9929592 L18.4303857,10.9929592 C18.1619006,10.9929592 17.9441854,10.7652027 17.9441854,10.4838872 L17.9441854,10.4838872 L17.9441854,7.50925632 C17.9441854,7.2279101 18.1619006,7 18.4303857,7 L18.4303857,7 Z" id="Combined-Shape" fill="#FFFFFF" fill-rule="nonzero"></path>
                    </g>
                </g>
            </g>
        </g>
    </g>
</svg>