<?xml version="1.0" encoding="UTF-8"?>
<svg width="29px" height="29px" viewBox="0 0 29 29" version="1.1" xmlns="http://www.w3.org/2000/svg" xmlns:xlink="http://www.w3.org/1999/xlink">
    <!-- Generator: Sketch 63.1 (92452) - https://sketch.com -->
    <title>ic_profile_location</title>
    <desc>Created with Sketch.</desc>
    <g id="Page-1" stroke="none" stroke-width="1" fill="none" fill-rule="evenodd">
        <g id="user-profile" transform="translate(-1402.000000, -467.000000)">
            <g id="profile" transform="translate(1146.000000, 125.000000)">
                <g id="Group-7" transform="translate(213.000000, 342.000000)">
                    <g id="ic_profile_location" transform="translate(43.000000, 0.000000)">
                        <circle id="Oval" fill="#961270" cx="14.5" cy="14.5" r="14.5"></circle>
                        <path d="M14.5,6 C10.9156901,6 8,8.85995117 8,12.375 C8,17.0780898 13.9971302,22.6679688 14.2524583,22.9038438 C14.3222656,22.9678262 14.4111328,23 14.5,23 C14.5888672,23 14.6777344,22.9678262 14.7475755,22.9038438 C15.0028698,22.6679688 21,17.0780898 21,12.375 C21,8.85995117 18.0843099,6 14.5,6 Z M14.5,15.9166777 C12.5089349,15.9166777 10.8888776,14.3277754 10.8888776,12.375 C10.8888776,10.4222246 12.5089687,8.83332227 14.5,8.83332227 C16.4910312,8.83332227 18.1111224,10.4222578 18.1111224,12.375 C18.1111224,14.3277422 16.4910651,15.9166777 14.5,15.9166777 Z" id="Shape" fill="#FFFFFF" fill-rule="nonzero"></path>
                    </g>
                </g>
            </g>
        </g>
    </g>
</svg>