<?xml version="1.0" encoding="UTF-8"?>
<svg width="29px" height="29px" viewBox="0 0 29 29" version="1.1" xmlns="http://www.w3.org/2000/svg" xmlns:xlink="http://www.w3.org/1999/xlink">
    <!-- Generator: Sketch 63.1 (92452) - https://sketch.com -->
    <title>ic_profile_email</title>
    <desc>Created with Sketch.</desc>
    <g id="Page-1" stroke="none" stroke-width="1" fill="none" fill-rule="evenodd">
        <g id="user-profile" transform="translate(-1402.000000, -511.000000)">
            <g id="profile" transform="translate(1146.000000, 125.000000)">
                <g id="Group-7" transform="translate(69.000000, 386.000000)">
                    <g id="ic_profile_email" transform="translate(187.000000, 0.000000)">
                        <circle id="Oval" fill="#961270" cx="14.5" cy="14.5" r="14.5"></circle>
                        <path d="M14,5 C9.03746442,5 5,9.03746442 5,14 C5,18.9625356 9.03746442,23 14,23 C15.5825853,23 17.1387819,22.5836156 18.5011011,21.7953559 L17.3750048,19.8474635 C16.3543859,20.4379821 15.1870645,20.7500097 14,20.7500097 C10.2778472,20.7500097 7.24999034,17.7221528 7.24999034,14 C7.24999034,10.2778472 10.2778472,7.24999034 14,7.24999034 C17.7221528,7.24999034 20.7500097,10.2778472 20.7500097,14 L20.7500097,14.9799735 C20.7500097,15.716074 20.2770616,16.2499903 19.6249952,16.2499903 C19.0048038,16.2499903 18.4999807,15.7451672 18.4999807,15.1249759 L18.4999807,10.6249952 L16.9448272,10.6249952 C16.1533994,9.93359692 15.1309259,9.49998068 14,9.49998068 C11.5187322,9.49998068 9.49998068,11.5187322 9.49998068,14 C9.49998068,16.4812678 11.5187322,18.5000193 14,18.5000193 C15.1815782,18.5000193 16.2498744,18.0327508 17.0536659,17.2852139 C17.6732391,18.0215076 18.5896171,18.5000193 19.6249952,18.5000193 C21.5174057,18.5000193 23,16.9537136 23,14.9799735 L23,14 C23,9.03746442 18.9625356,5 14,5 Z M14,16.2499903 C12.7590763,16.2499903 11.7500097,15.240885 11.7500097,14 C11.7500097,12.7590763 12.759115,11.7500097 14,11.7500097 C15.2409237,11.7500097 16.2499903,12.759115 16.2499903,14 C16.2499903,15.2409237 15.2409237,16.2499903 14,16.2499903 L14,16.2499903 Z" id="Shape" fill="#FFFFFF" fill-rule="nonzero"></path>
                    </g>
                </g>
            </g>
        </g>
    </g>
</svg>