<?xml version="1.0" encoding="UTF-8"?>
<svg width="16px" height="15px" viewBox="0 0 16 15" version="1.1" xmlns="http://www.w3.org/2000/svg" xmlns:xlink="http://www.w3.org/1999/xlink">
    <!-- Generator: Sketch 63.1 (92452) - https://sketch.com -->
    <title>ic_work</title>
    <desc>Created with Sketch.</desc>
    <g id="Page-1" stroke="none" stroke-width="1" fill="none" fill-rule="evenodd">
        <g id="user-profile" transform="translate(-1031.000000, -1023.000000)" fill="#D6D8D9">
            <g id="exp" transform="translate(222.000000, 912.000000)">
                <path d="M823.4,113.4 L822.6,113.4 L822.6,125.4 L823.4,125.4 C824.28,125.4 825,124.68 825,123.8 L825,115 C825,114.12 824.28,113.4 823.4,113.4 L823.4,113.4 Z M809,115 L809,123.8 C809,124.68 809.7192,125.4 810.6,125.4 L811.4,125.4 L811.4,113.4 L810.6,113.4 C809.7192,113.4 809,114.12 809,115 L809,115 Z M819.8,111.7248 C819.2552,111.472 818.2888,111 816.9848,111 C815.6784,111 814.7448,111.472 814.2,111.7248 L814.2,113.4 L812.2,113.4 L812.2,125.4 L821.8,125.4 L821.8,113.4 L819.8,113.4 L819.8,111.7248 L819.8,111.7248 Z M818.6,113.4 L815.4,113.4 L815.4,112.3312 C815.8272,112.1472 816.2624,111.9592 816.9848,111.9592 C817.7064,111.9592 818.1736,112.1464 818.6,112.3312 L818.6,113.4 L818.6,113.4 Z" id="ic_work"></path>
            </g>
        </g>
    </g>
</svg>