<?xml version="1.0" encoding="UTF-8"?>
<svg width="16px" height="13px" viewBox="0 0 16 13" version="1.1" xmlns="http://www.w3.org/2000/svg" xmlns:xlink="http://www.w3.org/1999/xlink">
    <!-- Generator: Sketch 63.1 (92452) - https://sketch.com -->
    <title>ic_education</title>
    <desc>Created with Sketch.</desc>
    <g id="Page-1" stroke="none" stroke-width="1" fill="none" fill-rule="evenodd">
        <g id="user-profile" transform="translate(-1031.000000, -678.000000)" fill="#D6D8D9">
            <g id="about" transform="translate(222.000000, 565.000000)">
                <g id="Group-11" transform="translate(575.000000, 92.000000)">
                    <path d="M236.642367,28.8701016 C237.013562,30.3732828 237.485556,31.0308746 239.059937,31.719666 C240.635117,32.4076574 241.383108,33.159648 242.0007,33.159648 C242.617492,33.159648 243.319084,32.5020562 244.893464,31.8124648 C246.468644,31.1236735 246.047849,30.9140761 246.419045,29.4108949 L242.0007,31.559668 L236.642367,28.8701016 L236.642367,28.8701016 Z M249.609405,24.9485506 L242.949488,21.2189973 C242.427895,20.9270009 241.573505,20.9270009 241.051912,21.2189973 L234.391195,24.9485506 C233.869602,25.240547 233.869602,25.718941 234.391195,26.0109374 L241.051112,29.7404907 C241.572705,30.0324871 242.427095,30.0324871 242.948688,29.7404907 L247.254234,27.3293209 L242.585493,26.2357346 C242.405495,26.279734 242.207897,26.3045337 242.0007,26.3045337 C241.159111,26.3045337 240.477519,25.8997388 240.477519,25.399745 C240.477519,24.8981513 241.159911,24.4933563 242.0007,24.4933563 C242.653492,24.4933563 243.208685,24.7389533 243.424682,25.080549 L248.37022,26.7037287 L249.609405,26.0101374 C250.130198,25.718941 250.130198,25.240547 249.609405,24.9485506 L249.609405,24.9485506 Z M247.57423,32.0156623 C247.522231,32.3236585 248.600617,32.8300521 248.703016,31.9300634 C249.16621,27.8725141 248.37022,26.7053287 248.37022,26.7053287 L247.254234,27.3301209 C247.254234,27.3293209 248.200622,28.2301096 247.57423,32.0156623 L247.57423,32.0156623 Z" id="ic_education"></path>
                </g>
            </g>
        </g>
    </g>
</svg>