<?xml version="1.0" encoding="UTF-8"?>
<svg width="29px" height="29px" viewBox="0 0 29 29" version="1.1" xmlns="http://www.w3.org/2000/svg" xmlns:xlink="http://www.w3.org/1999/xlink">
    <!-- Generator: Sketch 63.1 (92452) - https://sketch.com -->
    <title>ic_profile_call</title>
    <desc>Created with Sketch.</desc>
    <g id="Page-1" stroke="none" stroke-width="1" fill="none" fill-rule="evenodd">
        <g id="user-profile" transform="translate(-1402.000000, -599.000000)">
            <g id="profile" transform="translate(1146.000000, 125.000000)">
                <g id="Group-7" transform="translate(147.000000, 474.000000)">
                    <g id="ic_profile_call" transform="translate(109.000000, 0.000000)">
                        <circle id="Oval" fill="#961270" cx="14.5" cy="14.5" r="14.5"></circle>
                        <path d="M21.6109336,18.9875761 L19.4607337,16.8371362 C19.0324537,16.4105762 18.3232137,16.4235362 17.8800137,16.8668962 L16.7967337,17.9499361 C16.7282937,17.9122162 16.6574537,17.8728162 16.5829737,17.8310162 C15.8988937,17.4519762 14.9626138,16.9324562 13.9773738,15.9464962 C12.9892138,14.9584562 12.4692138,14.0207362 12.0890138,13.3362163 C12.0488938,13.2636963 12.0104538,13.1937763 11.9724938,13.1273763 L12.6995338,12.4014163 L13.0569738,12.0435363 C13.5008538,11.5995363 13.5130938,10.8904963 13.0858138,10.4626963 L10.9356138,8.31201636 C10.5083339,7.88481637 9.79877387,7.89777637 9.35489388,8.34177636 L8.74889389,8.95125635 L8.76545389,8.96769635 C8.5622539,9.22697634 8.3924539,9.52601634 8.2660939,9.84849633 C8.14961391,10.1554563 8.07709391,10.4483763 8.04393391,10.7418963 C7.76001392,13.0956563 8.83561389,15.2468162 11.7546538,18.1658961 C15.7896537,22.2006161 19.0413337,21.8958161 19.1816137,21.8809361 C19.4871337,21.8444161 19.7799336,21.7714161 20.0774936,21.6558561 C20.3971736,21.5309761 20.6960136,21.3614161 20.9551336,21.1586561 L20.9683736,21.1704161 L21.5822936,20.5692561 C22.0252536,20.1253361 22.0380136,19.4160561 21.6109336,18.9875761 Z" id="Path" fill="#FFFFFF" fill-rule="nonzero"></path>
                    </g>
                </g>
            </g>
        </g>
    </g>
</svg>