<?xml version="1.0" encoding="UTF-8"?>
<svg width="29px" height="29px" viewBox="0 0 29 29" version="1.1" xmlns="http://www.w3.org/2000/svg" xmlns:xlink="http://www.w3.org/1999/xlink">
    <!-- Generator: Sketch 63.1 (92452) - https://sketch.com -->
    <title>ic_profile_email2</title>
    <desc>Created with Sketch.</desc>
    <g id="Page-1" stroke="none" stroke-width="1" fill="none" fill-rule="evenodd">
        <g id="user-profile" transform="translate(-1402.000000, -555.000000)">
            <g id="profile" transform="translate(1146.000000, 125.000000)">
                <g id="Group-7" transform="translate(69.000000, 430.000000)">
                    <g id="ic_profile_email2" transform="translate(187.000000, 0.000000)">
                        <circle id="Oval" fill="#961270" cx="14.5" cy="14.5" r="14.5"></circle>
                        <path d="M14.5,14 C10.9159465,14 8,16.9159465 8,20.5 C8,24.0840535 10.9159465,27 14.5,27 C15.6429783,27 16.7668981,26.6992779 17.7507953,26.1299793 L16.9375035,24.7231681 C16.2003898,25.1496538 15.3573244,25.375007 14.5,25.375007 C11.8117785,25.375007 9.62499302,23.1882215 9.62499302,20.5 C9.62499302,17.8117785 11.8117785,15.624993 14.5,15.624993 C17.1882215,15.624993 19.375007,17.8117785 19.375007,20.5 L19.375007,21.2077586 C19.375007,21.7393868 19.0334334,22.124993 18.5624965,22.124993 C18.1145805,22.124993 17.749986,21.7603986 17.749986,21.3124826 L17.749986,18.0624965 L16.6268197,18.0624965 C16.0552329,17.5631533 15.3167798,17.249986 14.5,17.249986 C12.7079733,17.249986 11.249986,18.7079733 11.249986,20.5 C11.249986,22.2920267 12.7079733,23.750014 14.5,23.750014 C15.353362,23.750014 16.1249093,23.4125422 16.7054254,22.8726544 C17.1528949,23.4044221 17.8147235,23.750014 18.5624965,23.750014 C19.9292374,23.750014 21,22.6332376 21,21.2077586 L21,20.5 C21,16.9159465 18.0840535,14 14.5,14 Z M14.5,22.124993 C13.6037774,22.124993 12.875007,21.3961947 12.875007,20.5 C12.875007,19.6037774 13.6038053,18.875007 14.5,18.875007 C15.3962226,18.875007 16.124993,19.6038053 16.124993,20.5 C16.124993,21.3962226 15.3962226,22.124993 14.5,22.124993 L14.5,22.124993 Z" id="Shape" fill="#FFFFFF" fill-rule="nonzero"></path>
                        <path d="M23.0389196,7.22935986 L23.0389196,12.4629597 C23.4003996,12.6709997 23.6439196,13.0608397 23.6439196,13.5078397 C23.6439196,13.9547997 23.4003596,14.3446797 23.0389196,14.5526797 L23.0389196,14.5526797 L23.0389196,17.5012796 C23.0389196,17.8326396 22.7702796,18.1012796 22.4389196,18.1012796 C22.1075596,18.1012796 21.8389196,17.8326396 21.8389196,17.5012796 L21.8389196,17.5012796 L21.8389196,14.5526397 C21.4774796,14.3445997 21.2339196,13.9547597 21.2339196,13.5077997 C21.2339196,13.0607997 21.4774796,12.6709997 21.8389196,12.4629597 L21.8389196,12.4629597 L21.8389196,7.65595985 L23.0389196,7.22935986 Z M20.2622396,8.21647984 L20.2622396,10.8567998 C20.2622396,11.5027598 19.5883597,12.0490398 18.2593197,12.4803997 C17.1008397,12.8563997 15.6734397,13.0634797 14.2399998,13.0634797 C12.8065598,13.0634797 11.3791198,12.8563997 10.2206799,12.4803997 C8.89163989,12.0490398 8.21775991,11.5027598 8.21775991,10.8567998 L8.21775991,10.8567998 L8.21775991,8.21647984 L13.6370798,10.1430798 C13.8311998,10.2120798 14.0340398,10.2470798 14.2399998,10.2470798 C14.4459598,10.2470798 14.6487998,10.2120798 14.8429598,10.1430798 L14.8429598,10.1430798 L20.2622396,8.21647984 Z M14.0403998,1.05292 C14.1695598,1.00732 14.3104798,1.00732 14.4396398,1.05292 L14.4396398,1.05292 L24.0796396,4.45415992 C24.3192795,4.53871992 24.4796795,4.76511992 24.4799999,5.01927991 C24.4802795,5.2734399 24.3204395,5.5001999 24.0809596,5.5853199 L24.0809596,5.5853199 L14.4409598,9.01239982 C14.3759598,9.03551982 14.3079998,9.04707982 14.2399998,9.04707982 C14.1720398,9.04707982 14.1040398,9.03551982 14.0390398,9.01239982 L14.0390398,9.01239982 L4.39903999,5.5853199 C4.15956,5.5001999 3.99968,5.2734399 3.99999952,5.01927991 C4.00032,4.76511992 4.16072,4.53871992 4.40039999,4.45415992 L4.40039999,4.45415992 Z" id="Combined-Shape" fill="#FFFFFF" fill-rule="nonzero"></path>
                    </g>
                </g>
            </g>
        </g>
    </g>
</svg>